<svg viewBox="0 0 330 200" xmlns="http://www.w3.org/2000/svg"><g><g><g><g><g><line x1="74.78125" y1="176" x2="69.78125" y2="176" style="visibility: inherit;" fill="rgb(0, 0, 0)" stroke="rgb(204, 204, 204)" stroke-width="1px"></line><line x1="74.78125" y1="156.44444444444443" x2="69.78125" y2="156.44444444444443" style="visibility: inherit;" fill="rgb(0, 0, 0)" stroke="rgb(204, 204, 204)" stroke-width="1px"></line><line x1="74.78125" y1="136.88888888888886" x2="69.78125" y2="136.88888888888886" style="visibility: inherit;" fill="rgb(0, 0, 0)" stroke="rgb(204, 204, 204)" stroke-width="1px"></line><line x1="74.78125" y1="117.33333333333329" x2="69.78125" y2="117.33333333333329" style="visibility: inherit;" fill="rgb(0, 0, 0)" stroke="rgb(204, 204, 204)" stroke-width="1px"></line><line x1="74.78125" y1="97.7777777777777" x2="69.78125" y2="97.7777777777777" style="visibility: inherit;" fill="rgb(0, 0, 0)" stroke="rgb(204, 204, 204)" stroke-width="1px"></line><line x1="74.78125" y1="78.22222222222214" x2="69.78125" y2="78.22222222222214" style="visibility: inherit;" fill="rgb(0, 0, 0)" stroke="rgb(204, 204, 204)" stroke-width="1px"></line><line x1="74.78125" y1="58.666666666666714" x2="69.78125" y2="58.666666666666714" style="visibility: inherit;" fill="rgb(0, 0, 0)" stroke="rgb(204, 204, 204)" stroke-width="1px"></line><line x1="74.78125" y1="39.11111111111115" x2="69.78125" y2="39.11111111111115" style="visibility: inherit;" fill="rgb(0, 0, 0)" stroke="rgb(204, 204, 204)" stroke-width="1px"></line><line x1="74.78125" y1="19.555555555555564" x2="69.78125" y2="19.555555555555564" style="visibility: inherit;" fill="rgb(0, 0, 0)" stroke="rgb(204, 204, 204)" stroke-width="1px"></line><line x1="74.78125" y1="0" x2="69.78125" y2="0" style="visibility: inherit;" fill="rgb(0, 0, 0)" stroke="rgb(204, 204, 204)" stroke-width="1px"></line></g><g transform="translate(64.78125, 0)"><text x="0" y="176" dx="0em" dy="0.3em" style="text-anchor: end; visibility: hidden; font-family: Roboto, sans-serif; font-size: 12px; font-weight: 200;" fill="rgb(33, 33, 33)" stroke="none" stroke-width="1px">0.015</text><text x="0" y="156.44444444444443" dx="0em" dy="0.3em" style="text-anchor: end; visibility: inherit; font-family: Roboto, sans-serif; font-size: 12px; font-weight: 200;" fill="rgb(33, 33, 33)" stroke="none" stroke-width="1px">0.0155</text><text x="0" y="136.88888888888886" dx="0em" dy="0.3em" style="text-anchor: end; visibility: hidden; font-family: Roboto, sans-serif; font-size: 12px; font-weight: 200;" fill="rgb(33, 33, 33)" stroke="none" stroke-width="1px">0.016</text><text x="0" y="117.33333333333329" dx="0em" dy="0.3em" style="text-anchor: end; visibility: inherit; font-family: Roboto, sans-serif; font-size: 12px; font-weight: 200;" fill="rgb(33, 33, 33)" stroke="none" stroke-width="1px">0.0165</text><text x="0" y="97.7777777777777" dx="0em" dy="0.3em" style="text-anchor: end; visibility: hidden; font-family: Roboto, sans-serif; font-size: 12px; font-weight: 200;" fill="rgb(33, 33, 33)" stroke="none" stroke-width="1px">0.017</text><text x="0" y="78.22222222222214" dx="0em" dy="0.3em" style="text-anchor: end; visibility: inherit; font-family: Roboto, sans-serif; font-size: 12px; font-weight: 200;" fill="rgb(33, 33, 33)" stroke="none" stroke-width="1px">0.0175</text><text x="0" y="58.666666666666714" dx="0em" dy="0.3em" style="text-anchor: end; visibility: hidden; font-family: Roboto, sans-serif; font-size: 12px; font-weight: 200;" fill="rgb(33, 33, 33)" stroke="none" stroke-width="1px">0.018</text><text x="0" y="39.11111111111115" dx="0em" dy="0.3em" style="text-anchor: end; visibility: inherit; font-family: Roboto, sans-serif; font-size: 12px; font-weight: 200;" fill="rgb(33, 33, 33)" stroke="none" stroke-width="1px">0.0185</text><text x="0" y="19.555555555555564" dx="0em" dy="0.3em" style="text-anchor: end; visibility: hidden; font-family: Roboto, sans-serif; font-size: 12px; font-weight: 200;" fill="rgb(33, 33, 33)" stroke="none" stroke-width="1px">0.019</text><text x="0" y="0" dx="0em" dy="0.3em" style="text-anchor: end; visibility: hidden; font-family: Roboto, sans-serif; font-size: 12px; font-weight: 200;" fill="rgb(33, 33, 33)" stroke="none" stroke-width="1px">0.0195</text></g><line x1="74.78125" y1="0" x2="74.78125" y2="176" fill="rgb(0, 0, 0)" stroke="rgb(204, 204, 204)" stroke-width="1px"></line></g></g><g transform="translate(74, 0)" clip-path="url(#clip_0)"><clipPath id="clip_0"><rect width="255" height="176"></rect></clipPath><g><g><g><line x1="0" y1="0" x2="0" y2="176" fill="rgb(0, 0, 0)" stroke="rgb(66, 66, 66)" stroke-width="1px" opacity="0.25"></line><line x1="31.90234375" y1="0" x2="31.90234375" y2="176" fill="rgb(0, 0, 0)" stroke="rgb(66, 66, 66)" stroke-width="1px" opacity="0.25"></line><line x1="63.8046875" y1="0" x2="63.8046875" y2="176" fill="rgb(0, 0, 0)" stroke="rgb(66, 66, 66)" stroke-width="1px" opacity="0.25"></line><line x1="95.70703125" y1="0" x2="95.70703125" y2="176" fill="rgb(0, 0, 0)" stroke="rgb(66, 66, 66)" stroke-width="1px" opacity="0.25"></line><line x1="127.609375" y1="0" x2="127.609375" y2="176" fill="rgb(0, 0, 0)" stroke="rgb(66, 66, 66)" stroke-width="1px" opacity="0.25"></line><line x1="159.51171875" y1="0" x2="159.51171875" y2="176" fill="rgb(0, 0, 0)" stroke="rgb(66, 66, 66)" stroke-width="1px" opacity="0.25"></line><line x1="191.4140625" y1="0" x2="191.4140625" y2="176" fill="rgb(0, 0, 0)" stroke="rgb(66, 66, 66)" stroke-width="1px" opacity="0.25"></line><line x1="223.31640625" y1="0" x2="223.31640625" y2="176" fill="rgb(0, 0, 0)" stroke="rgb(66, 66, 66)" stroke-width="1px" opacity="0.25"></line><line x1="255.21875" y1="0" x2="255.21875" y2="176" fill="rgb(0, 0, 0)" stroke="rgb(66, 66, 66)" stroke-width="1px" opacity="0.25"></line></g><g><line x1="0" y1="176" x2="255.21875" y2="176" fill="rgb(0, 0, 0)" stroke="rgb(66, 66, 66)" stroke-width="1px" opacity="0.25"></line><line x1="0" y1="156.44444444444443" x2="255.21875" y2="156.44444444444443" fill="rgb(0, 0, 0)" stroke="rgb(66, 66, 66)" stroke-width="1px" opacity="0.25"></line><line x1="0" y1="136.88888888888886" x2="255.21875" y2="136.88888888888886" fill="rgb(0, 0, 0)" stroke="rgb(66, 66, 66)" stroke-width="1px" opacity="0.25"></line><line x1="0" y1="117.33333333333329" x2="255.21875" y2="117.33333333333329" fill="rgb(0, 0, 0)" stroke="rgb(66, 66, 66)" stroke-width="1px" opacity="0.25"></line><line x1="0" y1="97.7777777777777" x2="255.21875" y2="97.7777777777777" fill="rgb(0, 0, 0)" stroke="rgb(66, 66, 66)" stroke-width="1px" opacity="0.25"></line><line x1="0" y1="78.22222222222214" x2="255.21875" y2="78.22222222222214" fill="rgb(0, 0, 0)" stroke="rgb(66, 66, 66)" stroke-width="1px" opacity="0.25"></line><line x1="0" y1="58.666666666666714" x2="255.21875" y2="58.666666666666714" fill="rgb(0, 0, 0)" stroke="rgb(66, 66, 66)" stroke-width="1px" opacity="0.25"></line><line x1="0" y1="39.11111111111115" x2="255.21875" y2="39.11111111111115" fill="rgb(0, 0, 0)" stroke="rgb(66, 66, 66)" stroke-width="1px" opacity="0.25"></line><line x1="0" y1="19.555555555555564" x2="255.21875" y2="19.555555555555564" fill="rgb(0, 0, 0)" stroke="rgb(66, 66, 66)" stroke-width="1px" opacity="0.25"></line><line x1="0" y1="0" x2="255.21875" y2="0" fill="rgb(0, 0, 0)" stroke="rgb(66, 66, 66)" stroke-width="1px" opacity="0.25"></line></g></g></g><g><g><line x1="0" y1="762.6666666666666" x2="255.21875" y2="762.6666666666666" fill="rgb(0, 0, 0)" stroke="rgb(153, 153, 153)" stroke-width="1.5px"></line></g></g><g><g><line x1="31.90234375" y1="0" x2="31.90234375" y2="176" fill="rgb(0, 0, 0)" stroke="rgb(153, 153, 153)" stroke-width="1.5px"></line></g></g><g><g><g><g><g><path stroke="rgb(255, 112, 67)" stroke-width="2px" d="M39.8779296875,-1.5119471549987793L41.473046875,12.58906804190742L43.0681640625,23.07023355695935L44.66328125,33.0951387617323L46.2583984375,46.02800226211548L47.853515625,54.748380343119294L49.4486328125,56.4407615131802L51.04375,64.75237756305269L52.6388671875,72.04824437035454L54.233984375,78.14273982577852L55.8291015625,79.95692639880708L57.42421875,83.65137460496689L59.0193359375,86.79136053721109L60.614453125,91.41530344221326L62.2095703125,94.7895025147332L63.8046875,95.49272473653156L65.3998046875,99.66324848598902L66.994921875,103.08968109554712L68.5900390625,102.18364413579303L70.18515625,106.7697049776713L71.7802734375,108.28243774837915L73.375390625,106.84452205234102L74.9705078125,109.8844119177924L76.565625,112.79659552044336L78.1607421875,110.83372184965344L79.755859375,117.43372429741753L81.3509765625,114.71838172276813L82.94609375,117.69795168770683L84.5412109375,120.63286452823213L86.136328125,117.80591556760999L87.7314453125,122.25713083479138L89.3265625,124.60028213924829L90.9216796875,125.36761246787175L92.516796875,124.90770965152315L94.1119140625,126.86613946490816L95.70703125,121.92806683646306L97.3021484375,127.7874021000332L98.897265625,128.05942445331146L100.4923828125,130.40410561031763L102.0875,127.71804878446788L103.6826171875,133.07908921771576L105.277734375,131.4495048522949L106.8728515625,134.2001068856981L108.46796875,133.43539916144476L110.0630859375,132.45979033576117L111.658203125,132.75847583346894L113.2533203125,132.77858246697318L114.8484375,132.97892030080158L116.4435546875,132.84575027889673L118.038671875,134.87163930469086L119.6337890625,134.5506616698371L121.22890625,137.1721732881334L122.8240234375,133.97572851181027L124.419140625,135.7690799501207L126.0142578125,137.194392575158L127.609375,138.84932878282333L129.2044921875,138.52645704481336L130.799609375,138.0843296580844L132.3947265625,140.47111818525525L133.98984375,138.92786121368405L135.5849609375,141.70374223921033L137.180078125,139.51292053858438L138.7751953125,142.34817441304523L140.3703125,141.52008708318073L141.9654296875,146.59781339433457L143.560546875,142.89054356680975L145.1556640625,141.3708171844482L146.75078125,145.02956883112589L148.3458984375,145.97071954939096L149.941015625,145.6969487931993L151.5361328125,142.31990856594507L153.13125,145.48692189322577L154.7263671875,146.24521880679657L156.321484375,149.06116739908853L157.9166015625,145.73708921008637L159.51171875,148.55733595954047L161.1068359375,146.98268058564926L162.701953125,149.285108672248L164.2970703125,148.43604050742255L165.8921875,146.21134350034922L167.4873046875,148.00178093380396L169.082421875,149.10465892155963L170.6775390625,150.41749095916745L172.27265625,149.72563335630625L173.8677734375,148.56607797410751L175.462890625,151.21855089399546L177.0580078125,152.995110379325L178.653125,152.43543932172983L180.2482421875,151.0086696942647L181.843359375,152.87035454644095L183.4384765625,153.3290189107259L185.03359375,150.05615435706244L186.6287109375,149.8987980948554L188.223828125,153.5765271981557L189.8189453125,153.2993324862586L191.4140625,153.25329120953876L193.0091796875,152.58121241463553L194.604296875,151.31318320168387L196.1994140625,152.26187390751306L197.79453125,151.80175254080027L199.3896484375,154.4695239861806L200.984765625,156.49818131658762L202.5798828125,155.7048434946272L204.175,149.74340878592596L205.7701171875,154.99324350886872L207.365234375,153.90060096316864L208.9603515625,154.31959843635556L210.55546875,155.92907616827222L212.1505859375,156.21967530250546L213.745703125,153.5384630097283L215.3408203125,157.24066975381638L216.9359375,157.4545941352844L218.5310546875,156.70802609125772L220.126171875,159.26481037669708L221.7212890625,157.3359212875366L223.31640625,155.05531181229483L224.9115234375,151.60749769210813L226.506640625,156.3268378310733L228.1017578125,156.51366196738348L229.696875,159.12220626407196L231.2919921875,156.57471036911008L232.887109375,155.60795283317563L234.4822265625,159.46201565530563L236.07734375,159.17644317944843L237.6724609375,155.82406271828543L239.267578125,155.6121417151557" style="fill: none;" fill="none"></path></g></g></g></g></g></g><g transform="translate(74, 176)" clip-path="url(#clip_1)"><clipPath id="clip_1"><rect width="255" height="24"></rect></clipPath><g><g><line x1="0" y1="0" x2="0" y2="5" style="visibility: inherit;" fill="rgb(0, 0, 0)" stroke="rgb(204, 204, 204)" stroke-width="1px"></line><line x1="31.90234375" y1="0" x2="31.90234375" y2="5" style="visibility: inherit;" fill="rgb(0, 0, 0)" stroke="rgb(204, 204, 204)" stroke-width="1px"></line><line x1="63.8046875" y1="0" x2="63.8046875" y2="5" style="visibility: inherit;" fill="rgb(0, 0, 0)" stroke="rgb(204, 204, 204)" stroke-width="1px"></line><line x1="95.70703125" y1="0" x2="95.70703125" y2="5" style="visibility: inherit;" fill="rgb(0, 0, 0)" stroke="rgb(204, 204, 204)" stroke-width="1px"></line><line x1="127.609375" y1="0" x2="127.609375" y2="5" style="visibility: inherit;" fill="rgb(0, 0, 0)" stroke="rgb(204, 204, 204)" stroke-width="1px"></line><line x1="159.51171875" y1="0" x2="159.51171875" y2="5" style="visibility: inherit;" fill="rgb(0, 0, 0)" stroke="rgb(204, 204, 204)" stroke-width="1px"></line><line x1="191.4140625" y1="0" x2="191.4140625" y2="5" style="visibility: inherit;" fill="rgb(0, 0, 0)" stroke="rgb(204, 204, 204)" stroke-width="1px"></line><line x1="223.31640625" y1="0" x2="223.31640625" y2="5" style="visibility: inherit;" fill="rgb(0, 0, 0)" stroke="rgb(204, 204, 204)" stroke-width="1px"></line><line x1="255.21875" y1="0" x2="255.21875" y2="5" style="visibility: inherit;" fill="rgb(0, 0, 0)" stroke="rgb(204, 204, 204)" stroke-width="1px"></line></g><g transform="translate(0, 8)"><text x="0" y="0" dx="0em" dy="0.95em" style="text-anchor: middle; visibility: hidden; font-family: Roboto, sans-serif; font-size: 12px; font-weight: 200;" fill="rgb(33, 33, 33)" stroke="none" stroke-width="1px">-20</text><text x="31.90234375" y="0" dx="0em" dy="0.95em" style="text-anchor: middle; visibility: inherit; font-family: Roboto, sans-serif; font-size: 12px; font-weight: 200;" fill="rgb(33, 33, 33)" stroke="none" stroke-width="1px">0</text><text x="63.8046875" y="0" dx="0em" dy="0.95em" style="text-anchor: middle; visibility: inherit; font-family: Roboto, sans-serif; font-size: 12px; font-weight: 200;" fill="rgb(33, 33, 33)" stroke="none" stroke-width="1px">20</text><text x="95.70703125" y="0" dx="0em" dy="0.95em" style="text-anchor: middle; visibility: inherit; font-family: Roboto, sans-serif; font-size: 12px; font-weight: 200;" fill="rgb(33, 33, 33)" stroke="none" stroke-width="1px">40</text><text x="127.609375" y="0" dx="0em" dy="0.95em" style="text-anchor: middle; visibility: inherit; font-family: Roboto, sans-serif; font-size: 12px; font-weight: 200;" fill="rgb(33, 33, 33)" stroke="none" stroke-width="1px">60</text><text x="159.51171875" y="0" dx="0em" dy="0.95em" style="text-anchor: middle; visibility: inherit; font-family: Roboto, sans-serif; font-size: 12px; font-weight: 200;" fill="rgb(33, 33, 33)" stroke="none" stroke-width="1px">80</text><text x="191.4140625" y="0" dx="0em" dy="0.95em" style="text-anchor: middle; visibility: inherit; font-family: Roboto, sans-serif; font-size: 12px; font-weight: 200;" fill="rgb(33, 33, 33)" stroke="none" stroke-width="1px">100</text><text x="223.31640625" y="0" dx="0em" dy="0.95em" style="text-anchor: middle; visibility: inherit; font-family: Roboto, sans-serif; font-size: 12px; font-weight: 200;" fill="rgb(33, 33, 33)" stroke="none" stroke-width="1px">120</text><text x="255.21875" y="0" dx="0em" dy="0.95em" style="text-anchor: middle; visibility: hidden; font-family: Roboto, sans-serif; font-size: 12px; font-weight: 200;" fill="rgb(33, 33, 33)" stroke="none" stroke-width="1px">140</text></g><line x1="0" y1="0" x2="255.21875" y2="0" fill="rgb(0, 0, 0)" stroke="rgb(204, 204, 204)" stroke-width="1px"></line></g></g></g></g></svg>