<svg viewBox="0 0 330 200" xmlns="http://www.w3.org/2000/svg"><g><g><g><g><g><line x1="74.78125" y1="176" x2="69.78125" y2="176" style="visibility: inherit;" fill="rgb(0, 0, 0)" stroke="rgb(204, 204, 204)" stroke-width="1px"></line><line x1="74.78125" y1="158.39999999999998" x2="69.78125" y2="158.39999999999998" style="visibility: inherit;" fill="rgb(0, 0, 0)" stroke="rgb(204, 204, 204)" stroke-width="1px"></line><line x1="74.78125" y1="140.79999999999995" x2="69.78125" y2="140.79999999999995" style="visibility: inherit;" fill="rgb(0, 0, 0)" stroke="rgb(204, 204, 204)" stroke-width="1px"></line><line x1="74.78125" y1="123.19999999999996" x2="69.78125" y2="123.19999999999996" style="visibility: inherit;" fill="rgb(0, 0, 0)" stroke="rgb(204, 204, 204)" stroke-width="1px"></line><line x1="74.78125" y1="105.59999999999994" x2="69.78125" y2="105.59999999999994" style="visibility: inherit;" fill="rgb(0, 0, 0)" stroke="rgb(204, 204, 204)" stroke-width="1px"></line><line x1="74.78125" y1="87.99999999999994" x2="69.78125" y2="87.99999999999994" style="visibility: inherit;" fill="rgb(0, 0, 0)" stroke="rgb(204, 204, 204)" stroke-width="1px"></line><line x1="74.78125" y1="70.40000000000005" x2="69.78125" y2="70.40000000000005" style="visibility: inherit;" fill="rgb(0, 0, 0)" stroke="rgb(204, 204, 204)" stroke-width="1px"></line><line x1="74.78125" y1="52.800000000000026" x2="69.78125" y2="52.800000000000026" style="visibility: inherit;" fill="rgb(0, 0, 0)" stroke="rgb(204, 204, 204)" stroke-width="1px"></line><line x1="74.78125" y1="35.20000000000003" x2="69.78125" y2="35.20000000000003" style="visibility: inherit;" fill="rgb(0, 0, 0)" stroke="rgb(204, 204, 204)" stroke-width="1px"></line><line x1="74.78125" y1="17.600000000000016" x2="69.78125" y2="17.600000000000016" style="visibility: inherit;" fill="rgb(0, 0, 0)" stroke="rgb(204, 204, 204)" stroke-width="1px"></line><line x1="74.78125" y1="0" x2="69.78125" y2="0" style="visibility: inherit;" fill="rgb(0, 0, 0)" stroke="rgb(204, 204, 204)" stroke-width="1px"></line></g><g transform="translate(64.78125, 0)"><text x="0" y="176" dx="0em" dy="0.3em" style="text-anchor: end; visibility: hidden; font-family: Roboto, sans-serif; font-size: 12px; font-weight: 200;" fill="rgb(33, 33, 33)" stroke="none" stroke-width="1px">0.015</text><text x="0" y="158.39999999999998" dx="0em" dy="0.3em" style="text-anchor: end; visibility: inherit; font-family: Roboto, sans-serif; font-size: 12px; font-weight: 200;" fill="rgb(33, 33, 33)" stroke="none" stroke-width="1px">0.0155</text><text x="0" y="140.79999999999995" dx="0em" dy="0.3em" style="text-anchor: end; visibility: hidden; font-family: Roboto, sans-serif; font-size: 12px; font-weight: 200;" fill="rgb(33, 33, 33)" stroke="none" stroke-width="1px">0.016</text><text x="0" y="123.19999999999996" dx="0em" dy="0.3em" style="text-anchor: end; visibility: inherit; font-family: Roboto, sans-serif; font-size: 12px; font-weight: 200;" fill="rgb(33, 33, 33)" stroke="none" stroke-width="1px">0.0165</text><text x="0" y="105.59999999999994" dx="0em" dy="0.3em" style="text-anchor: end; visibility: hidden; font-family: Roboto, sans-serif; font-size: 12px; font-weight: 200;" fill="rgb(33, 33, 33)" stroke="none" stroke-width="1px">0.017</text><text x="0" y="87.99999999999994" dx="0em" dy="0.3em" style="text-anchor: end; visibility: inherit; font-family: Roboto, sans-serif; font-size: 12px; font-weight: 200;" fill="rgb(33, 33, 33)" stroke="none" stroke-width="1px">0.0175</text><text x="0" y="70.40000000000005" dx="0em" dy="0.3em" style="text-anchor: end; visibility: hidden; font-family: Roboto, sans-serif; font-size: 12px; font-weight: 200;" fill="rgb(33, 33, 33)" stroke="none" stroke-width="1px">0.018</text><text x="0" y="52.800000000000026" dx="0em" dy="0.3em" style="text-anchor: end; visibility: inherit; font-family: Roboto, sans-serif; font-size: 12px; font-weight: 200;" fill="rgb(33, 33, 33)" stroke="none" stroke-width="1px">0.0185</text><text x="0" y="35.20000000000003" dx="0em" dy="0.3em" style="text-anchor: end; visibility: hidden; font-family: Roboto, sans-serif; font-size: 12px; font-weight: 200;" fill="rgb(33, 33, 33)" stroke="none" stroke-width="1px">0.019</text><text x="0" y="17.600000000000016" dx="0em" dy="0.3em" style="text-anchor: end; visibility: inherit; font-family: Roboto, sans-serif; font-size: 12px; font-weight: 200;" fill="rgb(33, 33, 33)" stroke="none" stroke-width="1px">0.0195</text><text x="0" y="0" dx="0em" dy="0.3em" style="text-anchor: end; visibility: hidden; font-family: Roboto, sans-serif; font-size: 12px; font-weight: 200;" fill="rgb(33, 33, 33)" stroke="none" stroke-width="1px">0.02</text></g><line x1="74.78125" y1="0" x2="74.78125" y2="176" fill="rgb(0, 0, 0)" stroke="rgb(204, 204, 204)" stroke-width="1px"></line></g></g><g transform="translate(74, 0)" clip-path="url(#clip_0)"><clipPath id="clip_0"><rect width="255" height="176"></rect></clipPath><g><g><g><line x1="0" y1="0" x2="0" y2="176" fill="rgb(0, 0, 0)" stroke="rgb(66, 66, 66)" stroke-width="1px" opacity="0.25"></line><line x1="31.90234375" y1="0" x2="31.90234375" y2="176" fill="rgb(0, 0, 0)" stroke="rgb(66, 66, 66)" stroke-width="1px" opacity="0.25"></line><line x1="63.8046875" y1="0" x2="63.8046875" y2="176" fill="rgb(0, 0, 0)" stroke="rgb(66, 66, 66)" stroke-width="1px" opacity="0.25"></line><line x1="95.70703125" y1="0" x2="95.70703125" y2="176" fill="rgb(0, 0, 0)" stroke="rgb(66, 66, 66)" stroke-width="1px" opacity="0.25"></line><line x1="127.609375" y1="0" x2="127.609375" y2="176" fill="rgb(0, 0, 0)" stroke="rgb(66, 66, 66)" stroke-width="1px" opacity="0.25"></line><line x1="159.51171875" y1="0" x2="159.51171875" y2="176" fill="rgb(0, 0, 0)" stroke="rgb(66, 66, 66)" stroke-width="1px" opacity="0.25"></line><line x1="191.4140625" y1="0" x2="191.4140625" y2="176" fill="rgb(0, 0, 0)" stroke="rgb(66, 66, 66)" stroke-width="1px" opacity="0.25"></line><line x1="223.31640625" y1="0" x2="223.31640625" y2="176" fill="rgb(0, 0, 0)" stroke="rgb(66, 66, 66)" stroke-width="1px" opacity="0.25"></line><line x1="255.21875" y1="0" x2="255.21875" y2="176" fill="rgb(0, 0, 0)" stroke="rgb(66, 66, 66)" stroke-width="1px" opacity="0.25"></line></g><g><line x1="0" y1="176" x2="255.21875" y2="176" fill="rgb(0, 0, 0)" stroke="rgb(66, 66, 66)" stroke-width="1px" opacity="0.25"></line><line x1="0" y1="158.39999999999998" x2="255.21875" y2="158.39999999999998" fill="rgb(0, 0, 0)" stroke="rgb(66, 66, 66)" stroke-width="1px" opacity="0.25"></line><line x1="0" y1="140.79999999999995" x2="255.21875" y2="140.79999999999995" fill="rgb(0, 0, 0)" stroke="rgb(66, 66, 66)" stroke-width="1px" opacity="0.25"></line><line x1="0" y1="123.19999999999996" x2="255.21875" y2="123.19999999999996" fill="rgb(0, 0, 0)" stroke="rgb(66, 66, 66)" stroke-width="1px" opacity="0.25"></line><line x1="0" y1="105.59999999999994" x2="255.21875" y2="105.59999999999994" fill="rgb(0, 0, 0)" stroke="rgb(66, 66, 66)" stroke-width="1px" opacity="0.25"></line><line x1="0" y1="87.99999999999994" x2="255.21875" y2="87.99999999999994" fill="rgb(0, 0, 0)" stroke="rgb(66, 66, 66)" stroke-width="1px" opacity="0.25"></line><line x1="0" y1="70.40000000000005" x2="255.21875" y2="70.40000000000005" fill="rgb(0, 0, 0)" stroke="rgb(66, 66, 66)" stroke-width="1px" opacity="0.25"></line><line x1="0" y1="52.800000000000026" x2="255.21875" y2="52.800000000000026" fill="rgb(0, 0, 0)" stroke="rgb(66, 66, 66)" stroke-width="1px" opacity="0.25"></line><line x1="0" y1="35.20000000000003" x2="255.21875" y2="35.20000000000003" fill="rgb(0, 0, 0)" stroke="rgb(66, 66, 66)" stroke-width="1px" opacity="0.25"></line><line x1="0" y1="17.600000000000016" x2="255.21875" y2="17.600000000000016" fill="rgb(0, 0, 0)" stroke="rgb(66, 66, 66)" stroke-width="1px" opacity="0.25"></line><line x1="0" y1="0" x2="255.21875" y2="0" fill="rgb(0, 0, 0)" stroke="rgb(66, 66, 66)" stroke-width="1px" opacity="0.25"></line></g></g></g><g><g><line x1="0" y1="703.9999999999999" x2="255.21875" y2="703.9999999999999" fill="rgb(0, 0, 0)" stroke="rgb(153, 153, 153)" stroke-width="1.5px"></line></g></g><g><g><line x1="31.90234375" y1="0" x2="31.90234375" y2="176" fill="rgb(0, 0, 0)" stroke="rgb(153, 153, 153)" stroke-width="1.5px"></line></g></g><g><g><g><g><g><path stroke="rgb(255, 112, 67)" stroke-width="2px" d="M38.2828125,-10.858746528625488L39.8779296875,5.806724071502705L41.473046875,22.295758962631247L43.0681640625,32.653210401535034L44.66328125,41.90700435638428L46.2583984375,49.9886908531189L47.853515625,56.93852686882019L49.4486328125,65.09436750411987L51.04375,68.9665117263794L52.6388671875,75.89497351646423L54.233984375,81.69368290901184L55.8291015625,82.05415987968445L57.42421875,87.31628441810608L59.0193359375,90.45514845848083L60.614453125,93.26264643669128L62.2095703125,100.35043144226074L63.8046875,100.30715847015381L65.3998046875,103.94510412216187L66.994921875,106.5014877319336L68.5900390625,108.03295755386353L70.18515625,108.5706570148468L71.7802734375,108.33186888694763L73.375390625,112.31717848777771L74.9705078125,112.66808295249939L76.565625,114.11962890625L78.1607421875,116.49682307243347L79.755859375,120.59785509109497L81.3509765625,121.36699938774109L82.94609375,122.05038452148438L84.5412109375,123.74216103553772L86.136328125,124.17561197280884L87.7314453125,126.15777635574341L89.3265625,126.7787435054779L90.9216796875,124.89623808860779L92.516796875,126.93006777763367L94.1119140625,128.8753845691681L95.70703125,130.52867436408997L97.3021484375,131.7727723121643L98.897265625,132.4307837486267L100.4923828125,133.8844277858734L102.0875,131.96369791030884L103.6826171875,133.90206480026245L105.277734375,131.73467898368835L106.8728515625,134.3106665611267L108.46796875,137.85655879974365L110.0630859375,135.8455457687378L111.658203125,137.11757445335388L113.2533203125,136.8963577747345L114.8484375,137.84056091308594L116.4435546875,140.10000014305112L118.038671875,140.41281127929685L119.6337890625,140.21316552162168L121.22890625,137.22123289108276L122.8240234375,139.47568917274472L124.419140625,141.31905221939084L126.0142578125,142.22732567787168L127.609375,143.10380005836484L129.2044921875,141.74693012237546L130.799609375,142.70470523834226L132.3947265625,142.52256536483762L133.98984375,143.7808253765106L135.5849609375,144.07101655006406L137.180078125,144.55580496788022L138.7751953125,144.87615609169004L140.3703125,148.5916652679443L141.9654296875,146.52203702926633L143.560546875,147.2521045207977L145.1556640625,145.1203861236572L146.75078125,146.9657161235809L148.3458984375,149.27931213378903L149.941015625,150.34376168251035L151.5361328125,147.16496849060056L153.13125,149.46361565589902L154.7263671875,149.6197917461395L156.321484375,150.0000693798065L157.9166015625,148.54275369644162L159.51171875,150.61736488342282L161.1068359375,149.18266916275022L162.701953125,150.54806256294248L164.2970703125,155.02874934673306L165.8921875,153.12791848182675L167.4873046875,148.55396533012387L169.082421875,150.84644937515256L170.6775390625,152.85910153388974L172.27265625,152.57671260833737L173.8677734375,151.77681827545163L175.462890625,152.8120913505554L177.0580078125,150.71944975852963L178.653125,155.637390255928L180.2482421875,151.72036671638486L181.843359375,153.60726499557492L183.4384765625,153.7032523155212L185.03359375,153.78134036064145L186.6287109375,153.20882582664487L188.223828125,151.73151278495786L189.8189453125,153.01049137115476L191.4140625,155.99229419231412L193.0091796875,154.39391517639157L194.604296875,152.2393145561218L196.1994140625,155.22531354427335L197.79453125,153.8794913291931L199.3896484375,154.14266967773435L200.984765625,158.03897464275357L202.5798828125,155.55641734600064L204.175,154.88414549827573L205.7701171875,156.70036458969113L207.365234375,157.74570190906522L208.9603515625,157.51724028587338L210.55546875,155.01960301399228L212.1505859375,157.351753950119L213.745703125,154.7554084062576L215.3408203125,157.08991968631742L216.9359375,158.20223176479337L218.5310546875,158.10771965980527L220.126171875,159.3375571966171L221.7212890625,160.1530232429504L223.31640625,160.74491226673123L224.9115234375,157.8258224725723L226.506640625,160.12158477306363L228.1017578125,157.75871658325192L229.696875,160.4511805772781L231.2919921875,158.80320155620572L232.887109375,158.66485917568204L234.4822265625,161.5739502906799L236.07734375,159.42544722557065L237.6724609375,158.33991849422452L239.267578125,159.79182505607602" style="fill: none;" fill="none"></path></g></g></g></g></g></g><g transform="translate(74, 176)" clip-path="url(#clip_1)"><clipPath id="clip_1"><rect width="255" height="24"></rect></clipPath><g><g><line x1="0" y1="0" x2="0" y2="5" style="visibility: inherit;" fill="rgb(0, 0, 0)" stroke="rgb(204, 204, 204)" stroke-width="1px"></line><line x1="31.90234375" y1="0" x2="31.90234375" y2="5" style="visibility: inherit;" fill="rgb(0, 0, 0)" stroke="rgb(204, 204, 204)" stroke-width="1px"></line><line x1="63.8046875" y1="0" x2="63.8046875" y2="5" style="visibility: inherit;" fill="rgb(0, 0, 0)" stroke="rgb(204, 204, 204)" stroke-width="1px"></line><line x1="95.70703125" y1="0" x2="95.70703125" y2="5" style="visibility: inherit;" fill="rgb(0, 0, 0)" stroke="rgb(204, 204, 204)" stroke-width="1px"></line><line x1="127.609375" y1="0" x2="127.609375" y2="5" style="visibility: inherit;" fill="rgb(0, 0, 0)" stroke="rgb(204, 204, 204)" stroke-width="1px"></line><line x1="159.51171875" y1="0" x2="159.51171875" y2="5" style="visibility: inherit;" fill="rgb(0, 0, 0)" stroke="rgb(204, 204, 204)" stroke-width="1px"></line><line x1="191.4140625" y1="0" x2="191.4140625" y2="5" style="visibility: inherit;" fill="rgb(0, 0, 0)" stroke="rgb(204, 204, 204)" stroke-width="1px"></line><line x1="223.31640625" y1="0" x2="223.31640625" y2="5" style="visibility: inherit;" fill="rgb(0, 0, 0)" stroke="rgb(204, 204, 204)" stroke-width="1px"></line><line x1="255.21875" y1="0" x2="255.21875" y2="5" style="visibility: inherit;" fill="rgb(0, 0, 0)" stroke="rgb(204, 204, 204)" stroke-width="1px"></line></g><g transform="translate(0, 8)"><text x="0" y="0" dx="0em" dy="0.95em" style="text-anchor: middle; visibility: hidden; font-family: Roboto, sans-serif; font-size: 12px; font-weight: 200;" fill="rgb(33, 33, 33)" stroke="none" stroke-width="1px">-20</text><text x="31.90234375" y="0" dx="0em" dy="0.95em" style="text-anchor: middle; visibility: inherit; font-family: Roboto, sans-serif; font-size: 12px; font-weight: 200;" fill="rgb(33, 33, 33)" stroke="none" stroke-width="1px">0</text><text x="63.8046875" y="0" dx="0em" dy="0.95em" style="text-anchor: middle; visibility: inherit; font-family: Roboto, sans-serif; font-size: 12px; font-weight: 200;" fill="rgb(33, 33, 33)" stroke="none" stroke-width="1px">20</text><text x="95.70703125" y="0" dx="0em" dy="0.95em" style="text-anchor: middle; visibility: inherit; font-family: Roboto, sans-serif; font-size: 12px; font-weight: 200;" fill="rgb(33, 33, 33)" stroke="none" stroke-width="1px">40</text><text x="127.609375" y="0" dx="0em" dy="0.95em" style="text-anchor: middle; visibility: inherit; font-family: Roboto, sans-serif; font-size: 12px; font-weight: 200;" fill="rgb(33, 33, 33)" stroke="none" stroke-width="1px">60</text><text x="159.51171875" y="0" dx="0em" dy="0.95em" style="text-anchor: middle; visibility: inherit; font-family: Roboto, sans-serif; font-size: 12px; font-weight: 200;" fill="rgb(33, 33, 33)" stroke="none" stroke-width="1px">80</text><text x="191.4140625" y="0" dx="0em" dy="0.95em" style="text-anchor: middle; visibility: inherit; font-family: Roboto, sans-serif; font-size: 12px; font-weight: 200;" fill="rgb(33, 33, 33)" stroke="none" stroke-width="1px">100</text><text x="223.31640625" y="0" dx="0em" dy="0.95em" style="text-anchor: middle; visibility: inherit; font-family: Roboto, sans-serif; font-size: 12px; font-weight: 200;" fill="rgb(33, 33, 33)" stroke="none" stroke-width="1px">120</text><text x="255.21875" y="0" dx="0em" dy="0.95em" style="text-anchor: middle; visibility: hidden; font-family: Roboto, sans-serif; font-size: 12px; font-weight: 200;" fill="rgb(33, 33, 33)" stroke="none" stroke-width="1px">140</text></g><line x1="0" y1="0" x2="255.21875" y2="0" fill="rgb(0, 0, 0)" stroke="rgb(204, 204, 204)" stroke-width="1px"></line></g></g></g></g></svg>